<?xml version="1.0" encoding="UTF-8"?>
<svg xmlns="http://www.w3.org/2000/svg" xmlns:xlink="http://www.w3.org/1999/xlink" width="75pt" height="92pt" viewBox="0 0 75 92" version="1.1">
<g id="surface1">
<path style=" stroke:none;fill-rule:nonzero;fill:rgb(0%,0%,0%);fill-opacity:1;" d="M 46.972656 2.597656 L 47.425781 4.023438 L 50.167969 4.871094 L 48.839844 0.800781 C 48.742188 0.507812 48.535156 0.265625 48.257812 0.128906 C 47.984375 -0.0117188 47.664062 -0.0351562 47.367188 0.0585938 L 41.15625 2.023438 L 44.976562 3.230469 Z M 46.972656 2.597656 "/>
<path style=" stroke:none;fill-rule:nonzero;fill:rgb(0%,0%,0%);fill-opacity:1;" d="M 29.621094 8.050781 L 44.152344 12.648438 C 44.769531 12.84375 45.421875 12.511719 45.621094 11.90625 C 45.820312 11.300781 45.476562 10.652344 44.867188 10.460938 L 30.332031 5.882812 C 29.925781 5.6875 29.4375 5.742188 29.085938 6.027344 C 28.734375 6.316406 28.582031 6.777344 28.699219 7.210938 C 28.8125 7.644531 29.171875 7.96875 29.621094 8.050781 Z M 29.621094 8.050781 "/>
<path style=" stroke:none;fill-rule:nonzero;fill:rgb(0%,0%,0%);fill-opacity:1;" d="M 28.191406 12.480469 L 42.722656 17.082031 C 43.339844 17.277344 43.992188 16.945312 44.191406 16.339844 C 44.390625 15.730469 44.050781 15.085938 43.4375 14.890625 L 28.90625 10.292969 C 28.292969 10.097656 27.632812 10.429688 27.4375 11.039062 C 27.242188 11.640625 27.578125 12.289062 28.191406 12.480469 Z M 28.191406 12.480469 "/>
<path style=" stroke:none;fill-rule:nonzero;fill:rgb(0%,0%,0%);fill-opacity:1;" d="M 26.757812 16.894531 L 41.289062 21.492188 C 41.902344 21.6875 42.5625 21.355469 42.757812 20.746094 C 42.957031 20.140625 42.617188 19.488281 42 19.296875 L 27.46875 14.695312 C 26.855469 14.503906 26.199219 14.835938 26.003906 15.441406 C 25.804688 16.046875 26.144531 16.695312 26.757812 16.886719 Z M 26.757812 16.894531 "/>
<path style=" stroke:none;fill-rule:nonzero;fill:rgb(0%,0%,0%);fill-opacity:1;" d="M 25.324219 21.300781 L 39.855469 25.902344 C 40.46875 26.097656 41.125 25.761719 41.320312 25.160156 C 41.519531 24.554688 41.179688 23.90625 40.566406 23.710938 L 26.035156 19.113281 C 25.421875 18.917969 24.761719 19.253906 24.570312 19.859375 C 24.371094 20.460938 24.707031 21.109375 25.324219 21.300781 Z M 25.324219 21.300781 "/>
<path style=" stroke:none;fill-rule:nonzero;fill:rgb(0%,0%,0%);fill-opacity:1;" d="M 24.820312 33.316406 C 24.726562 33.605469 24.75 33.921875 24.894531 34.195312 C 25.035156 34.464844 25.277344 34.671875 25.574219 34.761719 L 30.429688 36.300781 C 31.488281 35.710938 32.625 35.257812 33.804688 34.957031 L 26.285156 32.574219 C 25.671875 32.382812 25.019531 32.710938 24.820312 33.316406 Z M 24.820312 33.316406 "/>
<path style=" stroke:none;fill-rule:nonzero;fill:rgb(0%,0%,0%);fill-opacity:1;" d="M 25.957031 57.5 C 25.957031 58.136719 26.480469 58.648438 27.125 58.648438 L 47.542969 58.648438 C 48.1875 58.648438 48.710938 58.136719 48.710938 57.5 C 48.710938 56.863281 48.1875 56.351562 47.542969 56.351562 L 27.125 56.351562 C 26.480469 56.351562 25.957031 56.863281 25.957031 57.5 Z M 25.957031 57.5 "/>
<path style=" stroke:none;fill-rule:nonzero;fill:rgb(0%,0%,0%);fill-opacity:1;" d="M 32.957031 54.050781 L 41.710938 54.050781 C 42.355469 54.050781 42.875 53.535156 42.875 52.898438 C 42.875 52.261719 42.355469 51.75 41.710938 51.75 L 32.957031 51.75 C 32.3125 51.75 31.792969 52.261719 31.792969 52.898438 C 31.792969 53.535156 32.3125 54.050781 32.957031 54.050781 Z M 32.957031 54.050781 "/>
<path style=" stroke:none;fill-rule:nonzero;fill:rgb(0%,0%,0%);fill-opacity:1;" d="M 69.621094 17.722656 L 70.527344 14.949219 C 70.722656 14.347656 70.382812 13.703125 69.773438 13.503906 L 27.300781 0.0585938 C 27.003906 -0.0351562 26.683594 -0.0117188 26.410156 0.128906 C 26.132812 0.265625 25.925781 0.507812 25.828125 0.800781 L 15.574219 32.371094 L 10.84375 28.023438 L 6.714844 15.328125 L 20.023438 11.121094 L 20.898438 8.421875 L 4.894531 13.488281 C 4.59375 13.582031 4.347656 13.789062 4.207031 14.0625 C 4.066406 14.339844 4.042969 14.65625 4.140625 14.949219 L 5.082031 17.824219 L 0 19.9375 L 0 73.601562 L 74.667969 73.601562 L 74.667969 19.957031 Z M 71.417969 21.039062 L 67.335938 24.808594 L 68.921875 19.921875 Z M 27.667969 2.597656 L 67.917969 15.328125 L 63.796875 28.019531 L 60.238281 31.292969 C 60.257812 31.253906 60.273438 31.210938 60.289062 31.167969 L 64.589844 17.945312 C 64.785156 17.34375 64.445312 16.699219 63.835938 16.503906 L 51 12.4375 C 50.707031 12.34375 50.386719 12.371094 50.109375 12.507812 C 49.832031 12.644531 49.625 12.890625 49.53125 13.179688 L 45.230469 26.40625 C 45.039062 27.007812 45.375 27.652344 45.984375 27.847656 L 58.816406 31.914062 C 59.066406 31.996094 59.339844 31.996094 59.589844 31.914062 L 53.667969 37.375 C 53.738281 36.828125 53.40625 36.304688 52.867188 36.132812 L 27.722656 28.175781 C 27.105469 27.980469 26.453125 28.3125 26.253906 28.921875 C 26.054688 29.523438 26.394531 30.171875 27.007812 30.367188 L 52.15625 38.304688 C 52.269531 38.34375 52.390625 38.363281 52.515625 38.363281 L 52.589844 38.363281 L 50.648438 40.132812 L 50.539062 40.242188 L 48.125 39.480469 L 49.683594 41.203125 C 49.183594 41.851562 48.777344 42.5625 48.476562 43.320312 C 45.289062 39.8125 42.183594 36.671875 37.035156 36.800781 C 32.371094 36.917969 29.101562 40.097656 26.191406 43.292969 C 27.199219 42.171875 22.917969 39.046875 22.195312 38.441406 C 21.472656 37.832031 17.1875 34.941406 17.457031 34.097656 Z M 58.429688 29.371094 L 47.835938 26.007812 L 51.414062 14.949219 L 62.050781 18.316406 Z M 5.792969 20.023438 L 7.351562 24.808594 L 3.265625 21.070312 Z M 2.332031 23.347656 L 8.800781 29.324219 L 12.300781 32.53125 L 22.4375 41.847656 C 23.433594 42.769531 24.113281 43.976562 24.378906 45.296875 L 2.332031 69.457031 Z M 3.785156 71.300781 L 30.378906 42.152344 C 32.152344 40.203125 34.679688 39.089844 37.335938 39.089844 C 39.992188 39.089844 42.523438 40.203125 44.292969 42.152344 L 70.882812 71.300781 Z M 72.335938 69.457031 L 50.296875 45.304688 C 50.554688 43.972656 51.238281 42.757812 52.238281 41.824219 L 72.335938 23.347656 Z M 72.335938 69.457031 "/>
</g>
</svg>
