<?xml version="1.0" encoding="UTF-8"?>
<svg xmlns="http://www.w3.org/2000/svg" xmlns:xlink="http://www.w3.org/1999/xlink" width="90pt" height="112pt" viewBox="0 0 90 112" version="1.1">
<g id="surface1">
<path style=" stroke:none;fill-rule:nonzero;fill:rgb(0%,0%,0%);fill-opacity:1;" d="M 88.738281 37.8125 C 82.800781 32.972656 82.53125 24.460938 82.53125 24.371094 C 82.53125 23.921875 82.078125 23.476562 81.628906 23.476562 L 73.53125 23.476562 C 73.078125 23.476562 72.628906 23.832031 72.628906 24.371094 C 72.628906 24.460938 72.359375 32.972656 66.421875 37.8125 C 66.148438 38.078125 66.058594 38.4375 66.148438 38.796875 C 66.238281 39.15625 66.601562 39.425781 66.960938 39.425781 L 76.679688 39.425781 L 76.679688 75.53125 C 72.359375 75.621094 69.03125 76.429688 69.03125 77.324219 C 69.03125 78.308594 72.898438 79.117188 77.578125 79.117188 C 82.261719 79.117188 86.128906 78.308594 86.128906 77.324219 C 86.128906 76.429688 82.800781 75.621094 78.480469 75.53125 L 78.480469 39.425781 L 82.980469 39.425781 L 82.980469 47.21875 C 82.621094 47.578125 82.441406 48.292969 82.441406 49.191406 C 82.441406 50.355469 82.890625 51.339844 83.429688 51.339844 C 83.96875 51.339844 84.421875 50.355469 84.421875 49.191406 C 84.421875 48.382812 84.148438 47.578125 83.878906 47.21875 L 83.878906 39.425781 L 88.199219 39.425781 C 88.558594 39.425781 88.921875 39.15625 89.011719 38.796875 C 89.101562 38.4375 89.011719 38.078125 88.738281 37.8125 Z M 69.210938 37.632812 C 73.261719 33.242188 74.160156 27.507812 74.339844 25.355469 L 80.730469 25.355469 C 81 27.417969 81.898438 33.242188 85.949219 37.632812 Z M 69.210938 37.632812 "/>
<path style=" stroke:none;fill-rule:nonzero;fill:rgb(0%,0%,0%);fill-opacity:1;" d="M 27.539062 20.789062 C 27.539062 18.726562 28.980469 16.933594 30.960938 16.574219 C 30.691406 16.488281 30.328125 16.488281 30.058594 16.488281 C 27.628906 16.488281 25.738281 18.457031 25.738281 20.789062 C 25.738281 23.117188 27.71875 25.089844 30.058594 25.089844 C 30.328125 25.089844 30.691406 25.089844 30.960938 25 C 28.980469 24.640625 27.539062 22.9375 27.539062 20.789062 Z M 27.539062 20.789062 "/>
<path style=" stroke:none;fill-rule:nonzero;fill:rgb(0%,0%,0%);fill-opacity:1;" d="M 16.289062 43.636719 L 35.28125 43.636719 L 35.28125 10.214844 L 16.289062 10.214844 Z M 33.480469 12.007812 L 33.480469 36.289062 C 31.949219 36.289062 30.328125 36.109375 28.53125 35.660156 C 22.050781 33.777344 19.261719 34.945312 18 36.289062 L 18 12.097656 L 33.480469 12.097656 Z M 33.480469 12.007812 "/>
<path style=" stroke:none;fill-rule:nonzero;fill:rgb(0%,0%,0%);fill-opacity:1;" d="M 37.441406 10.214844 L 37.441406 43.636719 L 56.429688 43.636719 L 56.429688 10.214844 Z M 54.71875 12.007812 L 54.71875 31.359375 C 53.460938 29.925781 51.121094 28.402344 47.519531 31.449219 C 42.929688 35.390625 40.050781 35.660156 39.238281 35.660156 L 39.238281 12.007812 Z M 54.71875 12.007812 "/>
<path style=" stroke:none;fill-rule:nonzero;fill:rgb(0%,0%,0%);fill-opacity:1;" d="M 71.011719 59.046875 C 69.929688 57.703125 68.039062 57.613281 68.039062 57.613281 C 66.691406 57.433594 66.328125 55.820312 66.328125 55.820312 C 65.070312 48.382812 58.140625 48.5625 58.140625 48.5625 L 14.488281 48.5625 C 14.398438 48.5625 7.46875 48.382812 6.300781 55.820312 C 6.300781 55.820312 5.941406 57.523438 4.679688 57.703125 C 4.589844 57.703125 2.789062 57.792969 1.710938 59.136719 C 0.988281 60.03125 0.71875 61.285156 1.078125 62.808594 C 1.890625 66.753906 4.769531 73.472656 4.859375 73.742188 C 4.859375 73.832031 5.941406 76.160156 9.179688 76.160156 L 10.351562 76.160156 L 9.628906 79.566406 L 11.519531 79.566406 L 13.230469 76.160156 L 59.398438 76.160156 L 61.109375 79.566406 L 63 79.566406 L 62.28125 76.160156 L 63.449219 76.160156 C 66.691406 76.160156 67.769531 73.832031 67.769531 73.742188 C 67.859375 73.472656 70.738281 66.753906 71.550781 62.808594 C 72 61.105469 71.730469 59.941406 71.011719 59.046875 Z M 14.488281 50.265625 C 14.488281 50.265625 14.578125 50.265625 14.488281 50.265625 L 58.230469 50.265625 C 58.410156 50.265625 62.28125 50.175781 63.988281 53.9375 C 63.359375 54.027344 62.640625 54.296875 61.921875 54.835938 C 60.03125 56.179688 58.679688 58.597656 57.960938 62.09375 C 56.519531 61.375 54.988281 61.019531 53.460938 61.019531 L 19.351562 61.019531 C 17.730469 61.019531 16.199219 61.375 14.851562 62.09375 C 14.128906 58.597656 12.78125 56.179688 10.890625 54.835938 C 10.171875 54.296875 9.449219 54.027344 8.820312 53.9375 C 10.351562 50.445312 13.949219 50.265625 14.488281 50.265625 Z M 13.679688 64.871094 L 14.941406 64.0625 C 16.289062 63.257812 17.730469 62.808594 19.351562 62.808594 L 53.460938 62.808594 C 54.988281 62.808594 56.519531 63.257812 57.871094 64.0625 L 59.128906 64.871094 Z M 61.019531 66.664062 C 61.019531 66.753906 61.019531 66.839844 61.019531 66.839844 L 60.480469 69.082031 C 60.300781 69.53125 59.851562 69.886719 59.398438 69.886719 L 13.320312 69.886719 C 12.871094 69.886719 12.421875 69.621094 12.328125 69.171875 L 11.789062 66.929688 C 11.789062 66.839844 11.789062 66.753906 11.789062 66.753906 L 61.019531 66.753906 Z M 7.558594 73.921875 C 6.75 73.5625 6.480469 72.933594 6.480469 72.933594 C 6.480469 72.84375 3.601562 66.125 2.789062 62.363281 C 2.609375 61.375 2.699219 60.660156 3.058594 60.210938 C 3.601562 59.496094 4.679688 59.40625 4.769531 59.40625 C 7.558594 59.046875 8.101562 56.179688 8.101562 56 C 8.101562 55.910156 8.191406 55.730469 8.191406 55.640625 C 9.449219 55.820312 11.96875 57.074219 13.140625 63.078125 L 11.339844 64.242188 C 10.351562 64.871094 9.808594 66.125 10.078125 67.289062 L 10.621094 69.53125 C 10.621094 69.53125 10.621094 69.621094 10.621094 69.621094 C 9.71875 70.335938 8.011719 71.769531 7.558594 73.921875 Z M 9.359375 74.277344 C 9.71875 72.753906 10.980469 71.679688 11.699219 71.140625 C 12.148438 71.5 12.78125 71.679688 13.410156 71.679688 L 59.398438 71.679688 C 60.03125 71.679688 60.570312 71.5 61.109375 71.140625 C 61.828125 71.679688 63.089844 72.753906 63.449219 74.277344 Z M 69.929688 62.273438 C 69.210938 66.035156 66.328125 72.753906 66.238281 72.84375 C 66.238281 72.84375 65.96875 73.472656 65.160156 73.832031 C 64.710938 71.679688 63.089844 70.246094 62.101562 69.53125 C 62.101562 69.53125 62.101562 69.441406 62.101562 69.441406 L 62.640625 67.199219 C 62.910156 66.035156 62.460938 64.78125 61.378906 64.152344 L 59.578125 62.988281 C 60.660156 56.984375 63.269531 55.820312 64.53125 55.550781 C 64.53125 55.640625 64.621094 55.820312 64.621094 55.910156 C 64.621094 56 65.25 58.957031 67.949219 59.226562 C 67.949219 59.226562 69.03125 59.316406 69.570312 60.03125 C 70.019531 60.570312 70.109375 61.375 69.929688 62.273438 Z M 69.929688 62.273438 "/>
</g>
</svg>
