<?xml version="1.0" encoding="UTF-8"?>
<svg xmlns="http://www.w3.org/2000/svg" xmlns:xlink="http://www.w3.org/1999/xlink" width="90pt" height="112pt" viewBox="0 0 90 112" version="1.1">
<g id="surface1">
<path style=" stroke:none;fill-rule:nonzero;fill:rgb(0%,0%,0%);fill-opacity:1;" d="M 87.1875 10.5 L 2.8125 10.5 C 1.265625 10.5 0 11.761719 0 13.300781 L 0 69.300781 C 0 70.839844 1.265625 72.101562 2.8125 72.101562 L 40.078125 72.101562 L 40.078125 78.398438 L 34.453125 78.398438 C 34.03125 78.398438 33.75 78.679688 33.75 79.101562 C 33.75 79.519531 34.03125 79.800781 34.453125 79.800781 L 55.546875 79.800781 C 55.96875 79.800781 56.25 79.519531 56.25 79.101562 C 56.25 78.679688 55.96875 78.398438 55.546875 78.398438 L 49.921875 78.398438 L 49.921875 72.101562 L 87.1875 72.101562 C 88.734375 72.101562 90 70.839844 90 69.300781 L 90 13.300781 C 90 11.761719 88.734375 10.5 87.1875 10.5 Z M 1.40625 13.300781 C 1.40625 12.53125 2.039062 11.898438 2.8125 11.898438 L 87.1875 11.898438 C 87.960938 11.898438 88.59375 12.53125 88.59375 13.300781 L 88.59375 23.101562 L 1.40625 23.101562 Z M 48.515625 72.101562 L 48.515625 78.398438 L 41.484375 78.398438 L 41.484375 72.101562 Z M 88.59375 69.300781 C 88.59375 70.070312 87.960938 70.699219 87.1875 70.699219 L 2.8125 70.699219 C 2.039062 70.699219 1.40625 70.070312 1.40625 69.300781 L 1.40625 66.5 L 88.59375 66.5 Z M 1.40625 65.101562 L 1.40625 24.5 L 88.59375 24.5 L 88.59375 65.101562 Z M 1.40625 65.101562 "/>
<path style=" stroke:none;fill-rule:nonzero;fill:rgb(0%,0%,0%);fill-opacity:1;" d="M 15.46875 27.300781 L 11.25 27.300781 C 9.703125 27.300781 8.4375 28.558594 8.4375 30.101562 L 8.4375 34.300781 C 8.4375 35.839844 9.703125 37.101562 11.25 37.101562 L 15.46875 37.101562 C 17.015625 37.101562 18.28125 35.839844 18.28125 34.300781 L 18.28125 30.101562 C 18.28125 28.558594 17.015625 27.300781 15.46875 27.300781 Z M 16.875 34.300781 C 16.875 35.070312 16.242188 35.699219 15.46875 35.699219 L 11.25 35.699219 C 10.476562 35.699219 9.84375 35.070312 9.84375 34.300781 L 9.84375 30.101562 C 9.84375 29.328125 10.476562 28.699219 11.25 28.699219 L 15.46875 28.699219 C 16.242188 28.699219 16.875 29.328125 16.875 30.101562 Z M 16.875 34.300781 "/>
<path style=" stroke:none;fill-rule:nonzero;fill:rgb(0%,0%,0%);fill-opacity:1;" d="M 15.46875 39.898438 L 11.25 39.898438 C 9.703125 39.898438 8.4375 41.160156 8.4375 42.699219 L 8.4375 46.898438 C 8.4375 48.441406 9.703125 49.699219 11.25 49.699219 L 15.46875 49.699219 C 17.015625 49.699219 18.28125 48.441406 18.28125 46.898438 L 18.28125 42.699219 C 18.28125 41.160156 17.015625 39.898438 15.46875 39.898438 Z M 16.875 46.898438 C 16.875 47.671875 16.242188 48.300781 15.46875 48.300781 L 11.25 48.300781 C 10.476562 48.300781 9.84375 47.671875 9.84375 46.898438 L 9.84375 42.699219 C 9.84375 41.929688 10.476562 41.300781 11.25 41.300781 L 15.46875 41.300781 C 16.242188 41.300781 16.875 41.929688 16.875 42.699219 Z M 16.875 46.898438 "/>
<path style=" stroke:none;fill-rule:nonzero;fill:rgb(0%,0%,0%);fill-opacity:1;" d="M 15.46875 52.5 L 11.25 52.5 C 9.703125 52.5 8.4375 53.761719 8.4375 55.300781 L 8.4375 59.5 C 8.4375 61.039062 9.703125 62.300781 11.25 62.300781 L 15.46875 62.300781 C 17.015625 62.300781 18.28125 61.039062 18.28125 59.5 L 18.28125 55.300781 C 18.28125 53.761719 17.015625 52.5 15.46875 52.5 Z M 16.875 59.5 C 16.875 60.269531 16.242188 60.898438 15.46875 60.898438 L 11.25 60.898438 C 10.476562 60.898438 9.84375 60.269531 9.84375 59.5 L 9.84375 55.300781 C 9.84375 54.53125 10.476562 53.898438 11.25 53.898438 L 15.46875 53.898438 C 16.242188 53.898438 16.875 54.53125 16.875 55.300781 Z M 16.875 59.5 "/>
<path style=" stroke:none;fill-rule:nonzero;fill:rgb(0%,0%,0%);fill-opacity:1;" d="M 14.976562 30.308594 L 12.585938 32.621094 L 11.742188 31.78125 C 11.460938 31.5 11.039062 31.5 10.757812 31.78125 C 10.476562 32.058594 10.476562 32.480469 10.757812 32.761719 L 12.09375 34.089844 C 12.234375 34.230469 12.445312 34.300781 12.585938 34.300781 C 12.796875 34.300781 12.9375 34.230469 13.078125 34.089844 L 15.960938 31.289062 C 16.242188 31.011719 16.242188 30.589844 15.960938 30.308594 C 15.679688 30.03125 15.257812 30.03125 14.976562 30.308594 Z M 14.976562 30.308594 "/>
<path style=" stroke:none;fill-rule:nonzero;fill:rgb(0%,0%,0%);fill-opacity:1;" d="M 14.976562 55.511719 L 12.585938 57.820312 L 11.742188 56.980469 C 11.460938 56.699219 11.039062 56.699219 10.757812 56.980469 C 10.476562 57.261719 10.476562 57.679688 10.757812 57.960938 L 12.09375 59.289062 C 12.234375 59.429688 12.445312 59.5 12.585938 59.5 C 12.796875 59.5 12.9375 59.429688 13.078125 59.289062 L 15.960938 56.488281 C 16.242188 56.210938 16.242188 55.789062 15.960938 55.511719 C 15.679688 55.230469 15.257812 55.230469 14.976562 55.511719 Z M 14.976562 55.511719 "/>
<path style=" stroke:none;fill-rule:nonzero;fill:rgb(0%,0%,0%);fill-opacity:1;" d="M 16.03125 42.980469 C 15.820312 42.628906 15.398438 42.558594 15.046875 42.769531 L 13.359375 43.960938 L 11.671875 42.839844 C 11.320312 42.628906 10.898438 42.699219 10.6875 43.050781 C 10.476562 43.398438 10.546875 43.820312 10.898438 44.03125 L 12.164062 44.871094 L 10.898438 45.710938 C 10.546875 45.921875 10.476562 46.339844 10.6875 46.691406 C 10.828125 46.898438 11.039062 46.96875 11.25 46.96875 C 11.390625 46.96875 11.53125 46.898438 11.671875 46.828125 L 13.359375 45.710938 L 15.046875 46.828125 C 15.1875 46.898438 15.328125 46.96875 15.46875 46.96875 C 15.679688 46.96875 15.890625 46.828125 16.03125 46.691406 C 16.242188 46.339844 16.171875 45.921875 15.820312 45.710938 L 14.625 44.800781 L 15.890625 43.960938 C 16.171875 43.75 16.242188 43.328125 16.03125 42.980469 Z M 16.03125 42.980469 "/>
<path style=" stroke:none;fill-rule:nonzero;fill:rgb(0%,0%,0%);fill-opacity:1;" d="M 47.109375 27.300781 L 21.09375 27.300781 C 20.671875 27.300781 20.390625 27.578125 20.390625 28 C 20.390625 28.421875 20.671875 28.699219 21.09375 28.699219 L 47.109375 28.699219 C 47.53125 28.699219 47.8125 28.421875 47.8125 28 C 47.8125 27.578125 47.53125 27.300781 47.109375 27.300781 Z M 47.109375 27.300781 "/>
<path style=" stroke:none;fill-rule:nonzero;fill:rgb(0%,0%,0%);fill-opacity:1;" d="M 47.109375 30.101562 L 21.09375 30.101562 C 20.671875 30.101562 20.390625 30.378906 20.390625 30.800781 C 20.390625 31.21875 20.671875 31.5 21.09375 31.5 L 47.109375 31.5 C 47.53125 31.5 47.8125 31.21875 47.8125 30.800781 C 47.8125 30.378906 47.53125 30.101562 47.109375 30.101562 Z M 47.109375 30.101562 "/>
<path style=" stroke:none;fill-rule:nonzero;fill:rgb(0%,0%,0%);fill-opacity:1;" d="M 47.109375 32.898438 L 21.09375 32.898438 C 20.671875 32.898438 20.390625 33.179688 20.390625 33.601562 C 20.390625 34.019531 20.671875 34.300781 21.09375 34.300781 L 47.109375 34.300781 C 47.53125 34.300781 47.8125 34.019531 47.8125 33.601562 C 47.8125 33.179688 47.53125 32.898438 47.109375 32.898438 Z M 47.109375 32.898438 "/>
<path style=" stroke:none;fill-rule:nonzero;fill:rgb(0%,0%,0%);fill-opacity:1;" d="M 21.09375 37.101562 L 35.15625 37.101562 C 35.578125 37.101562 35.859375 36.820312 35.859375 36.398438 C 35.859375 35.980469 35.578125 35.699219 35.15625 35.699219 L 21.09375 35.699219 C 20.671875 35.699219 20.390625 35.980469 20.390625 36.398438 C 20.390625 36.820312 20.671875 37.101562 21.09375 37.101562 Z M 21.09375 37.101562 "/>
<path style=" stroke:none;fill-rule:nonzero;fill:rgb(0%,0%,0%);fill-opacity:1;" d="M 47.109375 39.898438 L 21.09375 39.898438 C 20.671875 39.898438 20.390625 40.179688 20.390625 40.601562 C 20.390625 41.019531 20.671875 41.300781 21.09375 41.300781 L 47.109375 41.300781 C 47.53125 41.300781 47.8125 41.019531 47.8125 40.601562 C 47.8125 40.179688 47.53125 39.898438 47.109375 39.898438 Z M 47.109375 39.898438 "/>
<path style=" stroke:none;fill-rule:nonzero;fill:rgb(0%,0%,0%);fill-opacity:1;" d="M 21.09375 44.101562 L 42.1875 44.101562 C 42.609375 44.101562 42.890625 43.820312 42.890625 43.398438 C 42.890625 42.980469 42.609375 42.699219 42.1875 42.699219 L 21.09375 42.699219 C 20.671875 42.699219 20.390625 42.980469 20.390625 43.398438 C 20.390625 43.820312 20.671875 44.101562 21.09375 44.101562 Z M 21.09375 44.101562 "/>
<path style=" stroke:none;fill-rule:nonzero;fill:rgb(0%,0%,0%);fill-opacity:1;" d="M 47.109375 45.5 L 21.09375 45.5 C 20.671875 45.5 20.390625 45.78125 20.390625 46.199219 C 20.390625 46.621094 20.671875 46.898438 21.09375 46.898438 L 47.109375 46.898438 C 47.53125 46.898438 47.8125 46.621094 47.8125 46.199219 C 47.8125 45.78125 47.53125 45.5 47.109375 45.5 Z M 47.109375 45.5 "/>
<path style=" stroke:none;fill-rule:nonzero;fill:rgb(0%,0%,0%);fill-opacity:1;" d="M 21.09375 49.699219 L 35.15625 49.699219 C 35.578125 49.699219 35.859375 49.421875 35.859375 49 C 35.859375 48.578125 35.578125 48.300781 35.15625 48.300781 L 21.09375 48.300781 C 20.671875 48.300781 20.390625 48.578125 20.390625 49 C 20.390625 49.421875 20.671875 49.699219 21.09375 49.699219 Z M 21.09375 49.699219 "/>
<path style=" stroke:none;fill-rule:nonzero;fill:rgb(0%,0%,0%);fill-opacity:1;" d="M 47.109375 52.5 L 21.09375 52.5 C 20.671875 52.5 20.390625 52.78125 20.390625 53.199219 C 20.390625 53.621094 20.671875 53.898438 21.09375 53.898438 L 47.109375 53.898438 C 47.53125 53.898438 47.8125 53.621094 47.8125 53.199219 C 47.8125 52.78125 47.53125 52.5 47.109375 52.5 Z M 47.109375 52.5 "/>
<path style=" stroke:none;fill-rule:nonzero;fill:rgb(0%,0%,0%);fill-opacity:1;" d="M 47.109375 55.300781 L 21.09375 55.300781 C 20.671875 55.300781 20.390625 55.578125 20.390625 56 C 20.390625 56.421875 20.671875 56.699219 21.09375 56.699219 L 47.109375 56.699219 C 47.53125 56.699219 47.8125 56.421875 47.8125 56 C 47.8125 55.578125 47.53125 55.300781 47.109375 55.300781 Z M 47.109375 55.300781 "/>
<path style=" stroke:none;fill-rule:nonzero;fill:rgb(0%,0%,0%);fill-opacity:1;" d="M 47.109375 58.101562 L 21.09375 58.101562 C 20.671875 58.101562 20.390625 58.378906 20.390625 58.800781 C 20.390625 59.21875 20.671875 59.5 21.09375 59.5 L 47.109375 59.5 C 47.53125 59.5 47.8125 59.21875 47.8125 58.800781 C 47.8125 58.378906 47.53125 58.101562 47.109375 58.101562 Z M 47.109375 58.101562 "/>
<path style=" stroke:none;fill-rule:nonzero;fill:rgb(0%,0%,0%);fill-opacity:1;" d="M 35.15625 60.898438 L 21.09375 60.898438 C 20.671875 60.898438 20.390625 61.179688 20.390625 61.601562 C 20.390625 62.019531 20.671875 62.300781 21.09375 62.300781 L 35.15625 62.300781 C 35.578125 62.300781 35.859375 62.019531 35.859375 61.601562 C 35.859375 61.179688 35.578125 60.898438 35.15625 60.898438 Z M 35.15625 60.898438 "/>
<path style=" stroke:none;fill-rule:nonzero;fill:rgb(0%,0%,0%);fill-opacity:1;" d="M 78.75 27.300781 L 56.953125 27.300781 C 55.40625 27.300781 54.140625 28.558594 54.140625 30.101562 L 54.140625 59.5 C 54.140625 61.039062 55.40625 62.300781 56.953125 62.300781 L 78.75 62.300781 C 80.296875 62.300781 81.5625 61.039062 81.5625 59.5 L 81.5625 30.101562 C 81.5625 28.558594 80.296875 27.300781 78.75 27.300781 Z M 80.15625 59.5 C 80.15625 60.269531 79.523438 60.898438 78.75 60.898438 L 56.953125 60.898438 C 56.179688 60.898438 55.546875 60.269531 55.546875 59.5 L 55.546875 30.101562 C 55.546875 29.328125 56.179688 28.699219 56.953125 28.699219 L 78.75 28.699219 C 79.523438 28.699219 80.15625 29.328125 80.15625 30.101562 Z M 80.15625 59.5 "/>
</g>
</svg>
